<?xml version="1.0" encoding="UTF-8" standalone="no"?>
<!-- Created with Inkscape (http://www.inkscape.org/) -->

<svg
   xmlns:dc="http://purl.org/dc/elements/1.1/"
   xmlns:cc="http://creativecommons.org/ns#"
   xmlns:rdf="http://www.w3.org/1999/02/22-rdf-syntax-ns#"
   xmlns:svg="http://www.w3.org/2000/svg"
   xmlns="http://www.w3.org/2000/svg"
   xmlns:sodipodi="http://sodipodi.sourceforge.net/DTD/sodipodi-0.dtd"
   xmlns:inkscape="http://www.inkscape.org/namespaces/inkscape"
   version="1.1"
   id="svg2"
   inkscape:version="0.91+devel r14647 custom"
   xml:space="preserve"
   width="764.8858"
   height="63.401333"
   viewBox="0 0 764.88581 63.401333"
   sodipodi:docname="rwth_acs_combined.svg"><metadata
     id="metadata8"><rdf:RDF><cc:Work
         rdf:about=""><dc:format>image/svg+xml</dc:format><dc:type
           rdf:resource="http://purl.org/dc/dcmitype/StillImage" /><dc:title></dc:title></cc:Work></rdf:RDF></metadata><defs
     id="defs6"><clipPath
       clipPathUnits="userSpaceOnUse"
       id="clipPath22"><path
         d="M 0,0 H 318 V 48 H 0 Z"
         id="path20"
         inkscape:connector-curvature="0" /></clipPath></defs><sodipodi:namedview
     pagecolor="#ffffff"
     bordercolor="#666666"
     borderopacity="1"
     objecttolerance="10"
     gridtolerance="10"
     guidetolerance="10"
     inkscape:pageopacity="0"
     inkscape:pageshadow="2"
     inkscape:window-width="1440"
     inkscape:window-height="851"
     inkscape:document-units="px"
     id="namedview4"
     showgrid="false"
     inkscape:zoom="1.1892783"
     inkscape:cx="344.47688"
     inkscape:cy="-48.076868"
     inkscape:window-x="0"
     inkscape:window-y="23"
     inkscape:window-maximized="1"
     inkscape:current-layer="g10"
     fit-margin-top="0"
     fit-margin-left="0"
     fit-margin-right="0"
     fit-margin-bottom="0" /><g
     id="g10"
     inkscape:groupmode="layer"
     inkscape:label="rwth_acs_combined"
     transform="matrix(1.3333333,0,0,-1.3333333,341.40716,63.401469)"><g
       id="g12"><path
         d="m 261.312,20.438102 h 2.051 c 1.961,0 3.016,-0.996 3.016,-2.985 0,-2.324 -1.176,-3.23 -3.258,-3.23 h -1.809 z m -4.347,-18.344 h 4.347 v 9.113 h 2.321 c 1.75,0 2.508,-1.027 2.566,-2.718 l 0.121,-4.133 c 0.032,-0.844 0.121,-1.66 0.543,-2.262 h 4.707 v 0.18 c -0.816,0.422 -0.937,1.597 -0.965,3.863 -0.062,4.555 -0.515,6.187 -3.472,6.578 v 0.059 c 2.445,0.515 3.594,2.445 3.594,5.312 0,3.68 -2.176,5.551 -5.735,5.551 h -8.027 v -21.543"
         style="fill:#918f90;fill-opacity:1;fill-rule:nonzero;stroke:none"
         id="path26"
         inkscape:connector-curvature="0" /><path
         d="m 192.902,23.637102 v -15.027 c 0,-5.762 3.352,-6.942 6.879,-6.942 3.531,0 6.883,1.449 6.883,6.942 v 15.027 h -4.348 v -15.027 c 0,-2.141 -0.511,-3.743 -2.535,-3.743 -2.019,0 -2.531,1.602 -2.531,3.743 v 15.027 h -4.348"
         style="fill:#918f90;fill-opacity:1;fill-rule:nonzero;stroke:none"
         id="path28"
         inkscape:connector-curvature="0" /><path
         d="m 207.727,23.637102 v -21.543 h 3.984 v 15.086 h 0.059 l 5.312,-15.086 h 4.949 v 21.543 h -3.984 v -14.754 h -0.059 l -5.254,14.754 h -5.007"
         style="fill:#918f90;fill-opacity:1;fill-rule:nonzero;stroke:none"
         id="path30"
         inkscape:connector-curvature="0" /><path
         d="m 223.148,23.637102 h 4.344 v -21.543 h -4.344 z"
         style="fill:#918f90;fill-opacity:1;fill-rule:nonzero;stroke:none"
         id="path32"
         inkscape:connector-curvature="0" /><path
         d="m 227.789,23.637102 4.949,-21.543 h 5.582 l 4.95,21.543 h -4.497 l -3.199,-15.934 h -0.09 l -3.046,15.934 h -4.649"
         style="fill:#918f90;fill-opacity:1;fill-rule:nonzero;stroke:none"
         id="path34"
         inkscape:connector-curvature="0" /><path
         d="m 243.656,23.637102 v -21.543 H 256 v 3.559 h -7.996 v 5.793 h 7.242 v 3.562 h -7.242 v 5.07 h 7.691 v 3.559 h -12.039"
         style="fill:#918f90;fill-opacity:1;fill-rule:nonzero;stroke:none"
         id="path36"
         inkscape:connector-curvature="0" /><path
         d="m 271.086,8.821102 v -0.875 c 0,-3.985 1.934,-6.278 6.852,-6.278 4.707,0 7.48,2.055 7.48,6.61 0,2.625 -0.844,4.285 -4.102,5.703 l -3.351,1.449 c -1.84,0.785 -2.231,1.598 -2.231,2.926 0,1.269 0.512,2.507 2.473,2.507 1.66,0 2.355,-1.179 2.355,-3.199 h 4.165 v 0.602 c 0,4.137 -2.809,5.793 -6.668,5.793 -4.106,0 -6.672,-2.141 -6.672,-6.336 0,-3.59 1.781,-5.192 5.644,-6.516 2.867,-0.996 3.864,-1.722 3.864,-3.683 0,-1.809 -1.27,-2.657 -2.598,-2.657 -2.293,0 -2.863,1.297 -2.863,3.321 v 0.633 h -4.348"
         style="fill:#918f90;fill-opacity:1;fill-rule:nonzero;stroke:none"
         id="path38"
         inkscape:connector-curvature="0" /><path
         d="m 285.988,23.637102 h 4.344 v -21.543 h -4.344 z"
         style="fill:#918f90;fill-opacity:1;fill-rule:nonzero;stroke:none"
         id="path40"
         inkscape:connector-curvature="0" /><path
         d="m 312.902,23.637102 -3.019,-8.328 h -0.059 l -2.836,8.328 h -16.086 v -3.559 h 4.707 v -17.984 h 4.348 v 17.984 h 3.664 l 4.059,-9.507 v -8.477 h 4.347 v 8.477 l 5.582,13.066 h -4.707"
         style="fill:#918f90;fill-opacity:1;fill-rule:nonzero;stroke:none"
         id="path42"
         inkscape:connector-curvature="0" /><path
         d="m 154.73,25.598102 h -7.199 v 21.641 h 11.805 c 3.203,0 5.965,-2.071 6.867,-4.821 0.832,-2.547 0.121,-5.312 -1.762,-7.281 0.25,-0.676 0.497,-1.207 0.727,-1.816 0.523,-1.208 1,-2.411 1.523,-3.602 l 1.715,-4.121 h -7.301 c 0,-0.004 -0.062,0.172 -0.117,0.246 -0.289,0.641 -0.55,1.32 -0.843,1.961 l -1.754,4.164 c -0.7,1.684 -1.395,3.277 -2.09,4.957 0.867,0.027 1.519,-0.137 2.355,0.25 0.59,0.289 1.485,1.012 1.508,2.395 -0.023,0.683 -0.211,1.203 -0.664,1.742 -0.457,0.504 -1.113,0.875 -1.973,0.886 0,0 -2.797,0 -2.797,0 v -16.601"
         style="fill:#231f20;fill-opacity:1;fill-rule:nonzero;stroke:none"
         id="path44"
         inkscape:connector-curvature="0" /><path
         d="m 229.938,47.239102 v -21.641 h -7.2 v 8.824 h -5.043 v -8.824 c -1.304,0 -2.715,0.015 -4.019,0 h -3.18 v 16.633 h -5.035 v -16.633 h -7.203 v 16.633 h -5.078 v -16.633 h -7.414 c -1.293,3.121 -2.657,6.269 -3.922,9.375 -0.145,0.656 -0.289,1.308 -0.477,1.945 v -11.32 h -7.433 c -1.473,3.426 -2.887,6.781 -4.356,10.258 -0.508,1.203 -0.926,2.183 -1.453,3.437 l -0.074,0.164 -1.141,2.684 -1.64,3.836 c -0.141,0.433 -0.375,0.828 -0.52,1.262 h 7.414 c 1.524,-3.7 3.063,-7.36 4.66,-11 l 0.043,-0.09 c -0.058,0.422 -0.191,0.961 -0.262,1.367 v 6.457 c 0.016,1.031 0,2.207 0,3.266 h 7.43 c 0.094,-0.235 0.149,-0.364 0.219,-0.551 0.871,-2.047 1.699,-4.078 2.57,-6.11 l 1.946,-4.429 c -0.043,0.464 -0.145,0.914 -0.204,1.367 v 9.723 h 29.129 v -7.809 h 5.043 v 7.809 h 7.2"
         style="fill:#231f20;fill-opacity:1;fill-rule:nonzero;stroke:none"
         id="path46"
         inkscape:connector-curvature="0" /><path
         d="m 255.641,47.242102 h -5.395 l -4.516,-17.058 -4.515,17.058 h -5.399 l -5.726,-21.644 h 4.547 l 1,4.578 h 5.761 l 0.997,-4.578 h 6.667 l 1,4.578 h 5.762 l 1,-4.578 h 4.547 z m -19.246,-13.488 2.089,9.727 h 0.063 l 2.09,-9.727 z m 14.425,0 2.094,9.727 h 0.059 l 2.093,-9.727 h -4.246"
         style="fill:#918f90;fill-opacity:1;fill-rule:nonzero;stroke:none"
         id="path48"
         inkscape:connector-curvature="0" /><path
         d="m 274.371,39.856102 c 0,3.136 -0.453,7.695 -6.668,7.695 -6.519,0 -7.336,-4.648 -7.336,-11.195 0,-6.547 0.817,-11.196 7.336,-11.196 5.703,0 6.848,4.016 6.848,8.661 h -4.344 c 0,-4.645 -1.148,-5.461 -2.715,-5.461 -1.871,0 -2.777,1.175 -2.777,7.695 0,6.094 0.512,8.297 2.715,8.297 1.961,0 2.597,-1.36 2.597,-4.496 h 4.344"
         style="fill:#918f90;fill-opacity:1;fill-rule:nonzero;stroke:none"
         id="path50"
         inkscape:connector-curvature="0" /><path
         d="m 275.41,25.598102 h 4.363 v 9.609 h 5.094 v -9.609 h 4.363 v 21.641 h -4.363 v -8.274 h -5.094 v 8.274 h -4.363 v -21.641"
         style="fill:#918f90;fill-opacity:1;fill-rule:nonzero;stroke:none"
         id="path52"
         inkscape:connector-curvature="0" /><path
         d="m 290.176,47.242102 v -21.644 h 12.402 v 3.578 h -8.035 v 5.82 h 7.277 v 3.578 h -7.277 v 5.09 h 7.73 v 3.578 h -12.097"
         style="fill:#918f90;fill-opacity:1;fill-rule:nonzero;stroke:none"
         id="path54"
         inkscape:connector-curvature="0" /><path
         d="m 303.227,47.239102 v -21.641 h 4 v 15.156 h 0.058 l 5.336,-15.156 h 4.969 v 21.641 h -4 v -14.821 h -0.059 l -5.277,14.821 h -5.027"
         style="fill:#918f90;fill-opacity:1;fill-rule:nonzero;stroke:none"
         id="path56"
         inkscape:connector-curvature="0" /><path
         d="m 132.859,47.270102 h 1 v -45.355 h -1 z"
         style="fill:#231f20;fill-opacity:1;fill-rule:nonzero;stroke:none"
         id="path58"
         inkscape:connector-curvature="0" /><path
         d="m 41.984,47.266102 h 35.23 v -5.246 h -35.23 z"
         style="fill:#ef2f2c;fill-opacity:1;fill-rule:nonzero;stroke:none"
         id="path60"
         inkscape:connector-curvature="0" /><path
         d="m 41.984,35.649102 h 35.23 v -5.246 h -35.23 z"
         style="fill:#ef2f2c;fill-opacity:1;fill-rule:nonzero;stroke:none"
         id="path62"
         inkscape:connector-curvature="0" /><path
         d="m 41.984,24.031102 h 35.23 v -5.246 h -35.23 z"
         style="fill:#ef2f2c;fill-opacity:1;fill-rule:nonzero;stroke:none"
         id="path64"
         inkscape:connector-curvature="0" /><path
         d="m 83.957,47.266102 h 35.227 v -5.246 H 83.957 Z"
         style="fill:#ef2f2c;fill-opacity:1;fill-rule:nonzero;stroke:none"
         id="path66"
         inkscape:connector-curvature="0" /><path
         d="m 83.957,35.649102 h 35.227 v -5.246 H 83.957 Z"
         style="fill:#ef2f2c;fill-opacity:1;fill-rule:nonzero;stroke:none"
         id="path68"
         inkscape:connector-curvature="0" /><path
         d="m 0.012,47.266102 h 35.227 v -28.48 H 0.012 Z"
         style="fill:#ef2f2c;fill-opacity:1;fill-rule:nonzero;stroke:none"
         id="path70"
         inkscape:connector-curvature="0" /><path
         d="m 0,9.254102 v -7.359 h 4.215 v 1.218 H 1.484 v 1.977 h 2.473 v 1.215 H 1.484 v 1.734 h 2.629 v 1.215 z m 5.145,-7.359 h 1.359 v 1.609 H 5.145 Z m 2.214,2.14 c 0.051,-0.472 0.168,-0.875 0.34,-1.211 0.176,-0.335 0.43,-0.601 0.758,-0.789 0.328,-0.191 0.773,-0.285 1.328,-0.285 0.559,0 1,0.094 1.332,0.285 0.328,0.188 0.582,0.454 0.754,0.789 0.18,0.336 0.289,0.739 0.344,1.211 0.051,0.469 0.074,0.985 0.074,1.539 0,0.559 -0.023,1.071 -0.074,1.543 -0.055,0.469 -0.164,0.872 -0.344,1.211 -0.172,0.336 -0.426,0.598 -0.754,0.785 -0.332,0.192 -0.773,0.286 -1.332,0.286 -0.555,0 -1,-0.094 -1.328,-0.286 -0.328,-0.187 -0.582,-0.449 -0.758,-0.785 -0.172,-0.339 -0.289,-0.742 -0.34,-1.211 -0.05,-0.472 -0.078,-0.984 -0.078,-1.543 0,-0.554 0.028,-1.07 0.078,-1.539 m 1.442,2.797 c 0.027,0.344 0.074,0.625 0.144,0.844 0.075,0.219 0.176,0.379 0.313,0.48 0.133,0.098 0.308,0.149 0.527,0.149 0.223,0 0.399,-0.051 0.531,-0.149 0.137,-0.101 0.239,-0.261 0.313,-0.48 0.07,-0.219 0.117,-0.5 0.141,-0.844 0.027,-0.343 0.039,-0.761 0.039,-1.258 0,-0.496 -0.012,-0.914 -0.039,-1.261 -0.024,-0.348 -0.071,-0.629 -0.141,-0.844 -0.074,-0.219 -0.176,-0.375 -0.313,-0.477 -0.132,-0.097 -0.308,-0.148 -0.531,-0.148 -0.219,0 -0.394,0.051 -0.527,0.148 -0.137,0.102 -0.238,0.258 -0.313,0.477 -0.07,0.215 -0.117,0.496 -0.144,0.844 -0.024,0.347 -0.035,0.765 -0.035,1.261 0,0.497 0.011,0.915 0.035,1.258 m 4.398,2.422 v -7.359 h 1.36 v 5.152 h 0.019 l 1.813,-5.152 h 1.691 v 7.359 h -1.359 v -5.039 h -0.02 l -1.797,5.039 z m 8.281,0 v -7.359 h 4.215 v 1.218 h -2.73 v 1.977 h 2.473 v 1.215 h -2.473 v 1.734 h 2.629 v 1.215 z m 4.95,-7.359 h 1.422 v 3.679 c 0,0.61 0.253,0.918 0.753,0.918 0.211,0 0.368,-0.058 0.465,-0.171 0.094,-0.114 0.145,-0.313 0.145,-0.602 v -3.824 h 1.422 v 4.113 c 0,0.555 -0.125,0.957 -0.367,1.207 -0.243,0.246 -0.594,0.371 -1.047,0.371 -0.309,0 -0.582,-0.066 -0.825,-0.191 -0.238,-0.129 -0.433,-0.328 -0.586,-0.606 h -0.023 v 0.649 H 26.43 Z m 9.226,2.558 v 0.317 c 0,0.426 -0.031,0.812 -0.086,1.16 -0.054,0.348 -0.156,0.644 -0.308,0.887 -0.153,0.242 -0.36,0.433 -0.621,0.566 -0.266,0.133 -0.606,0.203 -1.016,0.203 -0.48,0 -0.867,-0.082 -1.156,-0.238 -0.289,-0.16 -0.508,-0.371 -0.664,-0.641 -0.153,-0.265 -0.258,-0.574 -0.309,-0.918 -0.051,-0.34 -0.078,-0.699 -0.078,-1.07 0,-0.344 0.016,-0.691 0.047,-1.047 0.031,-0.351 0.117,-0.672 0.254,-0.957 0.136,-0.285 0.347,-0.516 0.636,-0.695 0.29,-0.18 0.692,-0.27 1.207,-0.27 0.68,0 1.176,0.176 1.493,0.52 0.316,0.347 0.488,0.843 0.515,1.492 h -1.277 c -0.039,-0.352 -0.117,-0.613 -0.227,-0.785 -0.109,-0.172 -0.285,-0.258 -0.527,-0.258 -0.129,0 -0.238,0.039 -0.328,0.109 -0.09,0.075 -0.16,0.168 -0.215,0.289 -0.055,0.122 -0.094,0.258 -0.117,0.411 -0.027,0.156 -0.039,0.316 -0.039,0.48 v 0.445 z m -2.816,0.844 v 0.215 c 0,0.133 0.012,0.262 0.039,0.394 0.023,0.129 0.062,0.247 0.117,0.352 0.055,0.109 0.129,0.195 0.223,0.258 0.09,0.066 0.211,0.101 0.351,0.101 0.149,0 0.266,-0.031 0.36,-0.089 0.09,-0.059 0.164,-0.145 0.215,-0.258 0.05,-0.114 0.085,-0.25 0.109,-0.41 0.019,-0.164 0.031,-0.352 0.039,-0.563 z m 3.594,-3.402 h 1.421 v 3.328 c 0,0.187 0.032,0.344 0.09,0.473 0.063,0.125 0.145,0.226 0.25,0.308 0.102,0.078 0.215,0.133 0.34,0.168 0.121,0.035 0.246,0.051 0.371,0.051 0.074,0 0.149,0 0.223,-0.004 0.07,-0.004 0.144,-0.008 0.219,-0.016 v 1.36 c -0.039,0.008 -0.082,0.011 -0.129,0.015 -0.043,0.004 -0.086,0.008 -0.129,0.008 -0.293,0 -0.543,-0.082 -0.75,-0.246 -0.207,-0.16 -0.383,-0.375 -0.528,-0.641 h -0.019 v 0.739 h -1.359 z m 4.836,3.539 c 0.015,0.262 0.05,0.465 0.109,0.621 0.055,0.152 0.129,0.266 0.226,0.332 0.094,0.07 0.223,0.105 0.379,0.105 0.282,0 0.477,-0.14 0.582,-0.421 0.11,-0.282 0.161,-0.762 0.161,-1.434 0,-0.234 -0.012,-0.449 -0.036,-0.645 -0.023,-0.195 -0.066,-0.363 -0.125,-0.5 -0.058,-0.136 -0.136,-0.246 -0.234,-0.324 -0.102,-0.078 -0.227,-0.117 -0.379,-0.117 -0.148,0 -0.273,0.039 -0.363,0.117 -0.094,0.078 -0.164,0.184 -0.219,0.321 -0.051,0.132 -0.086,0.285 -0.101,0.457 -0.016,0.171 -0.028,0.355 -0.028,0.546 0,0.371 0.012,0.684 0.028,0.942 m 1.457,2.004 v -0.617 h -0.02 c -0.137,0.289 -0.312,0.488 -0.527,0.597 -0.211,0.11 -0.418,0.168 -0.618,0.168 -0.382,0 -0.691,-0.086 -0.921,-0.258 -0.231,-0.172 -0.407,-0.394 -0.528,-0.668 -0.117,-0.269 -0.199,-0.574 -0.234,-0.91 -0.039,-0.336 -0.059,-0.668 -0.059,-0.988 0,-1.012 0.145,-1.731 0.43,-2.16 0.285,-0.43 0.707,-0.645 1.273,-0.645 0.223,0 0.442,0.063 0.653,0.184 0.211,0.125 0.386,0.289 0.531,0.496 h 0.02 v -0.731 c 0,-0.289 -0.059,-0.527 -0.176,-0.718 -0.117,-0.188 -0.317,-0.282 -0.606,-0.282 -0.09,0 -0.175,0.016 -0.254,0.043 -0.078,0.028 -0.152,0.063 -0.222,0.11 -0.141,0.105 -0.215,0.246 -0.215,0.426 h -1.359 c 0,-0.477 0.164,-0.84 0.488,-1.098 0.328,-0.258 0.793,-0.387 1.398,-0.387 0.828,0 1.422,0.176 1.778,0.531 0.351,0.352 0.531,0.899 0.531,1.641 v 5.266 z m 2.39,-7.356 h 0.578 c 0.332,0 0.602,0.024 0.821,0.071 0.214,0.05 0.398,0.152 0.554,0.304 0.157,0.156 0.309,0.43 0.465,0.824 0.153,0.395 0.25,0.723 0.293,0.985 l 1.34,5.172 h -1.422 l -0.719,-3.832 h -0.023 l -0.824,3.832 h -1.485 l 1.559,-5.543 c -0.024,-0.246 -0.09,-0.438 -0.203,-0.574 -0.113,-0.141 -0.301,-0.208 -0.563,-0.208 -0.121,0 -0.246,0.008 -0.371,0.032 z m 6.985,1.813 h 1.484 v 3.113 h 0.785 c 0.305,0 0.524,-0.082 0.652,-0.246 0.129,-0.168 0.2,-0.395 0.215,-0.68 l 0.039,-1.414 c 0.008,-0.144 0.02,-0.281 0.043,-0.418 0.02,-0.133 0.067,-0.25 0.145,-0.355 h 1.625 v 0.062 c -0.137,0.074 -0.223,0.215 -0.262,0.422 -0.039,0.207 -0.058,0.504 -0.066,0.899 -0.008,0.39 -0.028,0.718 -0.055,0.988 -0.031,0.269 -0.09,0.488 -0.172,0.664 -0.082,0.176 -0.199,0.309 -0.351,0.402 -0.153,0.094 -0.352,0.157 -0.606,0.192 v 0.019 c 0.418,0.09 0.727,0.289 0.926,0.602 0.199,0.316 0.301,0.718 0.301,1.215 0,0.636 -0.172,1.113 -0.52,1.425 -0.34,0.313 -0.82,0.469 -1.441,0.469 h -2.742 z m 1.484,6.265 h 0.703 c 0.688,0 1.031,-0.339 1.031,-1.019 0,-0.399 -0.097,-0.68 -0.289,-0.852 -0.191,-0.168 -0.469,-0.25 -0.824,-0.25 h -0.621 z m 8.207,-3.707 v 0.317 c 0,0.426 -0.027,0.812 -0.082,1.16 -0.055,0.348 -0.156,0.644 -0.309,0.887 -0.152,0.242 -0.359,0.433 -0.625,0.566 -0.261,0.133 -0.601,0.203 -1.015,0.203 -0.481,0 -0.864,-0.082 -1.153,-0.238 -0.289,-0.16 -0.511,-0.371 -0.664,-0.641 -0.156,-0.265 -0.257,-0.574 -0.308,-0.918 -0.051,-0.34 -0.078,-0.699 -0.078,-1.07 0,-0.344 0.015,-0.691 0.046,-1.047 0.032,-0.351 0.114,-0.672 0.25,-0.957 0.137,-0.285 0.352,-0.516 0.641,-0.695 0.289,-0.18 0.692,-0.27 1.207,-0.27 0.68,0 1.176,0.176 1.492,0.52 0.317,0.347 0.489,0.843 0.516,1.492 h -1.277 c -0.043,-0.352 -0.118,-0.613 -0.227,-0.785 -0.109,-0.172 -0.285,-0.258 -0.527,-0.258 -0.129,0 -0.239,0.039 -0.328,0.109 -0.09,0.075 -0.161,0.168 -0.215,0.289 -0.055,0.122 -0.098,0.258 -0.121,0.411 -0.024,0.156 -0.036,0.316 -0.036,0.48 v 0.445 z m -2.813,0.844 v 0.215 c 0,0.133 0.012,0.262 0.036,0.394 0.023,0.129 0.066,0.247 0.121,0.352 0.054,0.109 0.125,0.195 0.218,0.258 0.094,0.066 0.211,0.101 0.356,0.101 0.144,0 0.262,-0.031 0.355,-0.089 0.094,-0.059 0.164,-0.145 0.219,-0.258 0.051,-0.114 0.086,-0.25 0.106,-0.41 0.019,-0.164 0.035,-0.352 0.043,-0.563 z m 3.36,-1.586 v -0.199 c 0,-0.266 0.031,-0.508 0.094,-0.727 0.058,-0.214 0.168,-0.398 0.324,-0.554 0.152,-0.157 0.359,-0.274 0.621,-0.356 0.262,-0.082 0.598,-0.125 1,-0.125 0.297,0 0.57,0.039 0.824,0.11 0.254,0.07 0.473,0.179 0.656,0.324 0.18,0.144 0.325,0.328 0.426,0.547 0.106,0.218 0.156,0.472 0.156,0.761 0,0.418 -0.093,0.75 -0.277,0.997 -0.187,0.242 -0.504,0.441 -0.949,0.589 l -0.856,0.289 c -0.242,0.079 -0.402,0.168 -0.488,0.278 -0.086,0.113 -0.129,0.234 -0.129,0.371 0,0.199 0.067,0.351 0.199,0.449 0.137,0.102 0.289,0.152 0.469,0.152 0.235,0 0.399,-0.07 0.492,-0.203 0.09,-0.133 0.137,-0.343 0.137,-0.633 h 1.277 v 0.227 c 0,0.5 -0.152,0.887 -0.461,1.164 -0.312,0.274 -0.789,0.414 -1.433,0.414 -0.363,0 -0.676,-0.047 -0.934,-0.137 -0.258,-0.089 -0.468,-0.207 -0.633,-0.359 -0.164,-0.152 -0.285,-0.328 -0.363,-0.531 -0.074,-0.203 -0.109,-0.418 -0.109,-0.645 0,-0.39 0.097,-0.711 0.297,-0.961 0.199,-0.254 0.496,-0.445 0.886,-0.586 l 1,-0.359 c 0.137,-0.055 0.258,-0.129 0.36,-0.223 0.105,-0.089 0.156,-0.226 0.156,-0.406 0,-0.219 -0.066,-0.383 -0.195,-0.496 -0.133,-0.109 -0.309,-0.164 -0.528,-0.164 -0.242,0 -0.425,0.074 -0.55,0.223 -0.129,0.148 -0.192,0.343 -0.192,0.582 v 0.187 z m 8.887,0.742 v 0.317 c 0,0.426 -0.028,0.812 -0.082,1.16 -0.055,0.348 -0.161,0.644 -0.309,0.887 -0.152,0.242 -0.359,0.433 -0.625,0.566 -0.266,0.133 -0.602,0.203 -1.016,0.203 -0.48,0 -0.863,-0.082 -1.152,-0.238 -0.289,-0.16 -0.512,-0.371 -0.664,-0.641 -0.156,-0.265 -0.258,-0.574 -0.313,-0.918 -0.05,-0.34 -0.074,-0.699 -0.074,-1.07 0,-0.344 0.016,-0.691 0.043,-1.047 0.031,-0.351 0.117,-0.672 0.254,-0.957 0.137,-0.285 0.352,-0.516 0.641,-0.695 0.289,-0.18 0.687,-0.27 1.207,-0.27 0.679,0 1.175,0.176 1.492,0.52 0.316,0.347 0.488,0.843 0.516,1.492 h -1.278 c -0.043,-0.352 -0.117,-0.613 -0.226,-0.785 -0.11,-0.172 -0.286,-0.258 -0.528,-0.258 -0.129,0 -0.242,0.039 -0.328,0.109 -0.09,0.075 -0.164,0.168 -0.219,0.289 -0.054,0.122 -0.093,0.258 -0.117,0.411 -0.023,0.156 -0.035,0.316 -0.035,0.48 v 0.445 z m -2.813,0.844 v 0.215 c 0,0.133 0.012,0.262 0.035,0.394 0.024,0.129 0.063,0.247 0.117,0.352 0.055,0.109 0.129,0.195 0.223,0.258 0.094,0.066 0.211,0.101 0.356,0.101 0.144,0 0.261,-0.031 0.355,-0.089 0.094,-0.059 0.164,-0.145 0.219,-0.258 0.051,-0.114 0.086,-0.25 0.105,-0.41 0.024,-0.164 0.035,-0.352 0.043,-0.563 z m 4.816,0.442 v 0.156 c 0,0.218 0.055,0.394 0.168,0.523 0.11,0.133 0.274,0.199 0.493,0.199 0.242,0 0.41,-0.062 0.511,-0.183 0.098,-0.121 0.149,-0.285 0.149,-0.5 0,-0.184 -0.039,-0.324 -0.125,-0.422 -0.082,-0.094 -0.231,-0.172 -0.442,-0.227 l -0.804,-0.214 c -0.246,-0.071 -0.457,-0.149 -0.633,-0.239 -0.176,-0.09 -0.32,-0.199 -0.434,-0.336 -0.113,-0.133 -0.199,-0.293 -0.254,-0.484 -0.054,-0.188 -0.078,-0.414 -0.078,-0.672 0,-0.187 0.024,-0.375 0.071,-0.562 0.046,-0.192 0.125,-0.36 0.226,-0.512 0.102,-0.149 0.238,-0.274 0.41,-0.371 0.172,-0.094 0.383,-0.145 0.629,-0.145 0.344,0 0.625,0.051 0.84,0.145 0.219,0.097 0.41,0.289 0.574,0.578 h 0.02 c 0.019,-0.098 0.043,-0.195 0.066,-0.293 0.024,-0.102 0.063,-0.195 0.11,-0.285 h 1.359 c -0.066,0.164 -0.113,0.32 -0.141,0.465 -0.023,0.144 -0.035,0.347 -0.035,0.609 v 2.914 c 0,0.25 -0.023,0.477 -0.074,0.688 -0.055,0.207 -0.152,0.386 -0.297,0.539 -0.144,0.152 -0.348,0.269 -0.613,0.351 -0.262,0.082 -0.606,0.125 -1.024,0.125 -0.269,0 -0.519,-0.031 -0.757,-0.09 -0.239,-0.058 -0.442,-0.156 -0.618,-0.289 -0.175,-0.133 -0.316,-0.312 -0.418,-0.531 -0.101,-0.219 -0.156,-0.488 -0.156,-0.801 v -0.136 z m 1.321,-2.165 c 0,-0.156 -0.028,-0.289 -0.082,-0.394 -0.055,-0.109 -0.125,-0.195 -0.211,-0.266 -0.086,-0.066 -0.18,-0.117 -0.285,-0.148 -0.102,-0.031 -0.203,-0.047 -0.297,-0.047 -0.192,0 -0.332,0.078 -0.414,0.227 -0.082,0.152 -0.121,0.335 -0.121,0.546 0,0.25 0.062,0.446 0.183,0.59 0.125,0.141 0.332,0.246 0.617,0.309 0.09,0.019 0.192,0.051 0.301,0.098 0.11,0.042 0.215,0.105 0.309,0.179 z m 2.347,-1.679 h 1.422 v 3.328 c 0,0.187 0.032,0.344 0.09,0.473 0.063,0.125 0.149,0.226 0.25,0.308 0.102,0.078 0.215,0.133 0.34,0.168 0.121,0.035 0.246,0.051 0.371,0.051 0.074,0 0.149,0 0.223,-0.004 0.07,-0.004 0.144,-0.008 0.218,-0.016 v 1.36 c -0.039,0.008 -0.082,0.011 -0.128,0.015 -0.043,0.004 -0.086,0.008 -0.129,0.008 -0.293,0 -0.543,-0.082 -0.75,-0.246 -0.207,-0.16 -0.383,-0.375 -0.528,-0.641 h -0.019 v 0.739 h -1.36 z m 7.551,3.547 c 0,0.66 -0.168,1.179 -0.5,1.566 -0.332,0.383 -0.828,0.578 -1.488,0.578 -0.328,0 -0.633,-0.047 -0.906,-0.137 -0.274,-0.089 -0.512,-0.246 -0.711,-0.468 -0.199,-0.223 -0.356,-0.52 -0.465,-0.895 -0.109,-0.375 -0.164,-0.847 -0.164,-1.418 0,-0.555 0.043,-1.023 0.133,-1.398 0.09,-0.375 0.222,-0.672 0.398,-0.895 0.176,-0.222 0.395,-0.383 0.66,-0.48 0.262,-0.094 0.574,-0.145 0.93,-0.145 0.758,0 1.297,0.199 1.625,0.59 0.324,0.391 0.488,0.949 0.488,1.68 H 83.09 c 0,-0.453 -0.055,-0.785 -0.164,-0.989 -0.11,-0.207 -0.285,-0.312 -0.528,-0.312 -0.156,0 -0.285,0.039 -0.386,0.109 -0.098,0.075 -0.176,0.188 -0.231,0.344 -0.054,0.16 -0.093,0.359 -0.113,0.606 -0.02,0.242 -0.031,0.535 -0.031,0.878 0,0.317 0.011,0.594 0.031,0.836 0.02,0.243 0.059,0.438 0.113,0.594 0.055,0.153 0.137,0.27 0.242,0.348 0.106,0.078 0.25,0.121 0.43,0.121 0.129,0 0.235,-0.035 0.324,-0.098 0.082,-0.066 0.149,-0.152 0.196,-0.258 0.043,-0.109 0.074,-0.226 0.089,-0.363 0.02,-0.133 0.028,-0.265 0.028,-0.394 z m 0.766,-3.547 h 1.422 v 3.679 c 0,0.61 0.25,0.918 0.754,0.918 0.211,0 0.363,-0.058 0.461,-0.171 0.097,-0.114 0.144,-0.313 0.144,-0.602 v -3.824 h 1.422 v 4.113 c 0,0.555 -0.121,0.957 -0.367,1.207 -0.242,0.246 -0.59,0.371 -1.043,0.371 -0.625,0 -1.074,-0.238 -1.352,-0.715 h -0.019 v 2.383 h -1.422 z m 12.187,4.875 c 0,0.269 -0.019,0.554 -0.054,0.859 -0.039,0.309 -0.133,0.594 -0.286,0.856 -0.148,0.265 -0.378,0.484 -0.683,0.656 -0.305,0.172 -0.723,0.258 -1.25,0.258 -0.559,0 -1,-0.094 -1.332,-0.286 -0.332,-0.187 -0.582,-0.449 -0.758,-0.785 -0.176,-0.339 -0.289,-0.742 -0.34,-1.211 -0.051,-0.472 -0.078,-0.984 -0.078,-1.543 0,-0.554 0.027,-1.07 0.078,-1.539 0.051,-0.472 0.164,-0.875 0.34,-1.211 0.176,-0.335 0.426,-0.601 0.758,-0.789 0.332,-0.191 0.773,-0.285 1.332,-0.285 0.484,0 0.883,0.082 1.187,0.239 0.305,0.156 0.543,0.371 0.711,0.644 0.168,0.27 0.285,0.586 0.344,0.941 0.063,0.36 0.094,0.735 0.094,1.133 h -1.481 c 0,-0.398 -0.027,-0.718 -0.074,-0.961 -0.047,-0.246 -0.113,-0.433 -0.195,-0.566 -0.082,-0.137 -0.18,-0.223 -0.297,-0.27 -0.109,-0.043 -0.234,-0.066 -0.363,-0.066 -0.16,0 -0.297,0.031 -0.418,0.098 -0.121,0.066 -0.219,0.191 -0.301,0.382 -0.078,0.188 -0.137,0.454 -0.172,0.797 -0.039,0.344 -0.059,0.793 -0.059,1.352 0,0.519 0.016,0.961 0.043,1.324 0.028,0.359 0.075,0.652 0.145,0.875 0.066,0.223 0.16,0.383 0.281,0.484 0.121,0.098 0.274,0.149 0.461,0.149 0.336,0 0.567,-0.121 0.695,-0.367 0.129,-0.242 0.188,-0.633 0.188,-1.168 z m 4.953,-2.317 v 0.317 c 0,0.426 -0.031,0.812 -0.085,1.16 -0.055,0.348 -0.157,0.644 -0.309,0.887 -0.149,0.242 -0.359,0.433 -0.625,0.566 -0.262,0.133 -0.602,0.203 -1.012,0.203 -0.484,0 -0.867,-0.082 -1.156,-0.238 -0.289,-0.16 -0.508,-0.371 -0.664,-0.641 -0.152,-0.265 -0.258,-0.574 -0.309,-0.918 -0.05,-0.34 -0.078,-0.699 -0.078,-1.07 0,-0.344 0.016,-0.691 0.047,-1.047 0.031,-0.351 0.113,-0.672 0.254,-0.957 0.137,-0.285 0.348,-0.516 0.637,-0.695 0.289,-0.18 0.691,-0.27 1.207,-0.27 0.679,0 1.179,0.176 1.492,0.52 0.316,0.347 0.488,0.843 0.516,1.492 h -1.278 c -0.039,-0.352 -0.117,-0.613 -0.226,-0.785 -0.11,-0.172 -0.286,-0.258 -0.524,-0.258 -0.133,0 -0.242,0.039 -0.332,0.109 -0.09,0.075 -0.16,0.168 -0.215,0.289 -0.054,0.122 -0.093,0.258 -0.121,0.411 -0.023,0.156 -0.035,0.316 -0.035,0.48 v 0.445 z m -2.816,0.844 v 0.215 c 0,0.133 0.012,0.262 0.035,0.394 0.028,0.129 0.067,0.247 0.121,0.352 0.055,0.109 0.129,0.195 0.219,0.258 0.094,0.066 0.215,0.101 0.359,0.101 0.141,0 0.262,-0.031 0.356,-0.089 0.09,-0.059 0.164,-0.145 0.215,-0.258 0.051,-0.114 0.086,-0.25 0.109,-0.41 0.02,-0.164 0.031,-0.352 0.039,-0.563 z m 3.594,-3.402 h 1.422 v 3.679 c 0,0.61 0.25,0.918 0.75,0.918 0.215,0 0.367,-0.058 0.465,-0.171 0.097,-0.114 0.144,-0.313 0.144,-0.602 v -3.824 h 1.422 v 4.113 c 0,0.555 -0.121,0.957 -0.367,1.207 -0.242,0.246 -0.59,0.371 -1.047,0.371 -0.309,0 -0.582,-0.066 -0.82,-0.191 -0.243,-0.129 -0.438,-0.328 -0.59,-0.606 h -0.02 v 0.649 h -1.359 z m 5.5,5.543 h -0.723 v -0.965 h 0.723 v -3.176 c 0,-0.281 0.019,-0.516 0.051,-0.699 0.035,-0.188 0.097,-0.336 0.191,-0.449 0.094,-0.114 0.227,-0.196 0.398,-0.243 0.172,-0.046 0.399,-0.074 0.68,-0.074 0.164,0 0.32,0.008 0.469,0.024 0.148,0.011 0.301,0.027 0.457,0.039 v 0.988 c -0.047,-0.004 -0.098,-0.012 -0.152,-0.012 -0.059,-0.004 -0.114,-0.008 -0.165,-0.008 -0.207,0 -0.343,0.047 -0.41,0.141 -0.066,0.094 -0.097,0.25 -0.097,0.469 v 3 h 0.824 v 0.965 h -0.824 v 1.59 h -1.422 z m 6.855,-2.985 v 0.317 c 0,0.426 -0.027,0.812 -0.082,1.16 -0.054,0.348 -0.156,0.644 -0.308,0.887 -0.149,0.242 -0.36,0.433 -0.621,0.566 -0.266,0.133 -0.606,0.203 -1.016,0.203 -0.481,0 -0.867,-0.082 -1.156,-0.238 -0.285,-0.16 -0.508,-0.371 -0.664,-0.641 -0.153,-0.265 -0.258,-0.574 -0.309,-0.918 -0.051,-0.34 -0.078,-0.699 -0.078,-1.07 0,-0.344 0.016,-0.691 0.047,-1.047 0.031,-0.351 0.113,-0.672 0.254,-0.957 0.136,-0.285 0.347,-0.516 0.636,-0.695 0.289,-0.18 0.692,-0.27 1.207,-0.27 0.68,0 1.18,0.176 1.497,0.52 0.312,0.347 0.484,0.843 0.511,1.492 h -1.277 c -0.039,-0.352 -0.117,-0.613 -0.227,-0.785 -0.109,-0.172 -0.285,-0.258 -0.523,-0.258 -0.133,0 -0.242,0.039 -0.332,0.109 -0.09,0.075 -0.16,0.168 -0.215,0.289 -0.055,0.122 -0.094,0.258 -0.121,0.411 -0.023,0.156 -0.035,0.316 -0.035,0.48 v 0.445 z m -2.812,0.844 v 0.215 c 0,0.133 0.012,0.262 0.035,0.394 0.027,0.129 0.066,0.247 0.121,0.352 0.055,0.109 0.129,0.195 0.219,0.258 0.094,0.066 0.215,0.101 0.359,0.101 0.141,0 0.262,-0.031 0.356,-0.089 0.093,-0.059 0.164,-0.145 0.214,-0.258 0.051,-0.114 0.086,-0.25 0.11,-0.41 0.019,-0.164 0.031,-0.352 0.039,-0.563 z m 3.594,-3.402 h 1.421 v 3.328 c 0,0.187 0.032,0.344 0.09,0.473 0.063,0.125 0.145,0.226 0.25,0.308 0.102,0.078 0.215,0.133 0.34,0.168 0.121,0.035 0.246,0.051 0.371,0.051 0.074,0 0.149,0 0.219,-0.004 0.074,-0.004 0.148,-0.008 0.223,-0.016 v 1.36 c -0.039,0.008 -0.082,0.011 -0.129,0.015 -0.043,0.004 -0.086,0.008 -0.129,0.008 -0.293,0 -0.547,-0.082 -0.75,-0.246 -0.207,-0.16 -0.383,-0.375 -0.528,-0.641 h -0.019 v 0.739 h -1.359 v -5.543"
         style="fill:#ef2f2c;fill-opacity:1;fill-rule:nonzero;stroke:none"
         id="path72"
         inkscape:connector-curvature="0" /><path
         inkscape:connector-curvature="0"
         id="path4792"
         style="fill:#231f20;fill-opacity:1;fill-rule:nonzero;stroke:none"
         d="m -14.141001,47.270102 h 1 v -45.355 h -1 z" /></g><text
       xml:space="preserve"
       style="font-style:normal;font-weight:normal;font-size:19.70387459px;line-height:125%;font-family:sans-serif;text-align:center;letter-spacing:0px;word-spacing:0px;text-anchor:middle;fill:#a09f9f;fill-opacity:1;stroke:none;stroke-width:0.49259686px;stroke-linecap:butt;stroke-linejoin:miter;stroke-opacity:1"
       x="-147.27122"
       y="-28.930653"
       id="text4796"
       sodipodi:linespacing="125%"
       transform="scale(0.95489833,-1.0472319)"><tspan
         sodipodi:role="line"
         id="tspan4794"
         x="-147.62874"
         y="-28.930653"
         style="font-style:normal;font-variant:normal;font-weight:bold;font-stretch:normal;font-size:19.13927078px;font-family:'Helvetica Neue';-inkscape-font-specification:'Helvetica Neue Bold';letter-spacing:-0.71501422px;fill:#a09f9f;fill-opacity:1;stroke-width:0.49259686px">ACS<tspan
   style="font-style:normal;font-variant:normal;font-weight:normal;font-stretch:normal;font-size:19.13927078px;font-family:'Helvetica Neue';-inkscape-font-specification:'Helvetica Neue';fill:#a09f9f;fill-opacity:1;stroke-width:0.49259686px"
   id="tspan4804"> <tspan
   style="font-size:19.13927078px;fill:#000000;stroke-width:0.49259686px"
   id="tspan4806">|</tspan> Automation of Complex</tspan></tspan><tspan
         sodipodi:role="line"
         x="-147.62874"
         y="-4.9915276"
         style="font-style:normal;font-variant:normal;font-weight:normal;font-stretch:normal;font-size:19.13927078px;font-family:'Helvetica Neue';-inkscape-font-specification:'Helvetica Neue';letter-spacing:-0.71501422px;fill:#a09f9f;fill-opacity:1;stroke-width:0.49259686px"
         id="tspan4798">    Power Systems</tspan></text>
</g></svg>