<?xml version="1.0" encoding="UTF-8" standalone="no"?>
<!-- Created with Inkscape (http://www.inkscape.org/) -->

<svg
   xmlns:dc="http://purl.org/dc/elements/1.1/"
   xmlns:cc="http://creativecommons.org/ns#"
   xmlns:rdf="http://www.w3.org/1999/02/22-rdf-syntax-ns#"
   xmlns:svg="http://www.w3.org/2000/svg"
   xmlns="http://www.w3.org/2000/svg"
   xmlns:sodipodi="http://sodipodi.sourceforge.net/DTD/sodipodi-0.dtd"
   xmlns:inkscape="http://www.inkscape.org/namespaces/inkscape"
   width="149.71165mm"
   height="149.71165mm"
   viewBox="0 0 149.71165 149.71165"
   version="1.1"
   id="svg8"
   inkscape:version="0.91+devel r14647 custom"
   sodipodi:docname="villas_node.svg">
  <defs
     id="defs2" />
  <sodipodi:namedview
     id="base"
     pagecolor="#ffffff"
     bordercolor="#666666"
     borderopacity="1.0"
     inkscape:pageopacity="0.0"
     inkscape:pageshadow="2"
     inkscape:zoom="1.0941748"
     inkscape:cx="282.57339"
     inkscape:cy="285.10587"
     inkscape:document-units="mm"
     inkscape:current-layer="layer1"
     showgrid="false"
     inkscape:snap-smooth-nodes="true"
     inkscape:snap-bbox="true"
     inkscape:snap-bbox-edge-midpoints="true"
     inkscape:bbox-nodes="true"
     inkscape:object-paths="true"
     inkscape:snap-intersection-paths="false"
     inkscape:bbox-paths="false"
     inkscape:snap-midpoints="true"
     inkscape:window-width="1440"
     inkscape:window-height="851"
     inkscape:window-x="0"
     inkscape:window-y="23"
     inkscape:window-maximized="1"
     fit-margin-top="0"
     fit-margin-left="0"
     fit-margin-right="0"
     fit-margin-bottom="0"
     inkscape:measure-start="37.9039,424.38"
     inkscape:measure-end="101.386,461.031"
     inkscape:snap-global="true" />
  <metadata
     id="metadata5">
    <rdf:RDF>
      <cc:Work
         rdf:about="">
        <dc:format>image/svg+xml</dc:format>
        <dc:type
           rdf:resource="http://purl.org/dc/dcmitype/StillImage" />
        <dc:title />
      </cc:Work>
    </rdf:RDF>
  </metadata>
  <g
     inkscape:label="Ebene 1"
     inkscape:groupmode="layer"
     id="layer1"
     transform="translate(9.2667999,-9.6854979)">
    <g
       id="g5005"
       transform="matrix(0.9623191,0,0,0.9623191,2.7484651,3.9385684)">
      <path
         inkscape:connector-curvature="0"
         id="path4216"
         d="m 63.587891,9.6855469 c 6.06e-4,7.0683591 0.0015,14.1367191 0.002,21.2050781 15.819673,9.135873 31.640734,18.269342 47.460939,27.404297 0,17.498047 0,34.996094 0,52.494138 -5.49672,3.17323 -10.99381,6.34579 -16.490236,9.51953 6.513716,4.46314 13.027976,8.92546 19.542976,13.38672 6.10534,-3.52205 12.20877,-7.04742 18.3125,-10.57226 0,-25.720706 0,-51.441409 0,-77.162112 C 109.47401,32.712977 86.530215,19.468112 63.587891,6.2207031 c 0,1.1549479 0,2.3098959 0,3.4648438 z M -1.2382812,47.113281 c 0,25.33724 -10e-8,50.674479 0,76.011719 22.2754942,12.86097 44.5512202,25.72155 66.8281252,38.58008 5.8117,-3.35395 11.623148,-6.70834 17.433594,-10.06446 0.02546,-8.23762 0.05066,-16.47525 0.07422,-24.71289 -5.83576,3.37058 -11.673247,6.73816 -17.509765,10.10743 -15.153646,-8.74805 -30.307292,-17.4961 -45.460938,-26.24414 0,-18.268885 0,-36.537765 0,-54.806645 -7.120999,-4.11327 -14.2439643,-8.223136 -21.3652342,-12.335937 -1e-7,1.154947 0,2.309895 0,3.464843 z"
         style="color:#000000;font-style:normal;font-variant:normal;font-weight:normal;font-stretch:normal;font-size:medium;line-height:normal;font-family:sans-serif;font-variant-ligatures:normal;font-variant-position:normal;font-variant-caps:normal;font-variant-numeric:normal;font-variant-alternates:normal;font-feature-settings:normal;text-indent:0;text-align:start;text-decoration:none;text-decoration-line:none;text-decoration-style:solid;text-decoration-color:#000000;letter-spacing:normal;word-spacing:normal;text-transform:none;writing-mode:lr-tb;direction:ltr;text-orientation:mixed;dominant-baseline:auto;baseline-shift:baseline;text-anchor:start;white-space:normal;shape-padding:0;clip-rule:nonzero;display:inline;overflow:visible;visibility:visible;opacity:1;isolation:auto;mix-blend-mode:normal;color-interpolation:sRGB;color-interpolation-filters:linearRGB;solid-color:#000000;solid-opacity:1;fill:#0073d9;fill-opacity:1;fill-rule:nonzero;stroke:none;stroke-width:17.36499977;stroke-linecap:butt;stroke-linejoin:miter;stroke-miterlimit:4;stroke-dasharray:none;stroke-dashoffset:0;stroke-opacity:1;color-rendering:auto;image-rendering:auto;shape-rendering:auto;text-rendering:auto;enable-background:accumulate" />
      <path
         inkscape:connector-curvature="0"
         id="path4234"
         d="M 60.834646,7.8107504 C 55.411432,10.941911 49.987942,14.072591 44.564895,17.20404 44.98294,28.217745 45.394994,39.23168 45.81076,50.245473 36.442386,44.40125 27.07547,38.554688 17.706182,32.71193 11.331473,36.391852 4.9568349,40.071899 -1.4174075,43.75263 20.251318,56.263922 41.921166,68.773267 63.589891,81.284557 63.589484,56.263273 63.588514,31.241988 63.588055,6.2207031 62.670238,6.7507189 61.75242,7.2807346 60.834603,7.8107504 Z"
         style="fill:#37a1ff;fill-opacity:1;fill-rule:evenodd;stroke:none;stroke-width:0.51856697;stroke-linecap:butt;stroke-linejoin:miter;stroke-miterlimit:4;stroke-dasharray:none;stroke-opacity:1" />
      <path
         inkscape:connector-curvature="0"
         id="path4255"
         d="m 74.302734,102.83398 c 0,17.94141 0,35.88282 0,53.82422 5.235031,-3.04473 10.47151,-6.08697 15.707032,-9.13086 -0.08797,-7.21942 -0.180028,-14.43879 -0.269532,-21.6582 6.014579,3.79842 12.027266,7.59984 18.042966,11.39648 5.37572,-3.08613 10.75339,-6.16886 16.13086,-9.25195 -16.53658,-9.54909 -33.074584,-19.09572 -49.611326,-28.644529 0,1.154949 0,2.309899 0,3.464839 z"
         style="fill:#37a1ff;fill-opacity:1;fill-rule:evenodd;stroke:none;stroke-width:0.38000983;stroke-linecap:butt;stroke-linejoin:miter;stroke-miterlimit:4;stroke-dasharray:none;stroke-opacity:1" />
      <path
         inkscape:connector-curvature="0"
         id="path4329"
         d="M 65.519531,7.6875 C 30.952342,7.2288821 -1.7559504,32.928216 -9.0985572,66.77029 c -8.9441948,34.36253 9.91032274,73.19316 42.4331002,87.43912 31.90533,15.5955 73.697367,4.8306 94.125297,-24.21303 C 149.0773,101.82081 146.84579,58.724642 122.42805,32.933531 108.17012,16.922072 86.915542,7.695183 65.519531,7.6875 Z"
         style="opacity:1;fill:none;fill-opacity:1;stroke:none;stroke-width:3.70000005;stroke-linecap:butt;stroke-linejoin:miter;stroke-miterlimit:4;stroke-dasharray:none;stroke-dashoffset:0;stroke-opacity:1" />
      <path
         inkscape:connector-curvature="0"
         id="path4978"
         d="m 20.126956,55.984374 -21.3652354,-12.335936 -1.8e-6,12.603665 21.3652372,7.683492 z"
         style="fill:#005aa9;fill-opacity:1;fill-rule:evenodd;stroke:none;stroke-width:0.26458332px;stroke-linecap:butt;stroke-linejoin:miter;stroke-opacity:1" />
      <path
         sodipodi:nodetypes="ccccc"
         style="fill:#005aa9;fill-opacity:1;fill-rule:evenodd;stroke:none;stroke-width:0.26458332px;stroke-linecap:butt;stroke-linejoin:miter;stroke-opacity:1"
         d="m 67.039539,136.19721 7.263195,-4.14394 v 24.60493 l -2.312864,1.35308 z"
         id="path4980"
         inkscape:connector-curvature="0" />
    </g>
  </g>
</svg>
